<?xml version="1.0" standalone="no"?>
<!DOCTYPE svg PUBLIC "-//W3C//DTD SVG 20010904//EN"
 "http://www.w3.org/TR/2001/REC-SVG-20010904/DTD/svg10.dtd">
<svg version="1.0" xmlns="http://www.w3.org/2000/svg"
 width="180.000000pt" height="180.000000pt" viewBox="0 0 180.000000 180.000000"
 preserveAspectRatio="xMidYMid meet">
<metadata>
Created by potrace 1.14, written by Peter Selinger 2001-2017
</metadata>
<g transform="translate(0.000000,180.000000) scale(0.100000,-0.100000)"
fill="#000000" stroke="none">
<path d="M1035 1600 c-40 -15 -155 -148 -155 -179 0 -5 -7 -14 -15 -21 -9 -7
-13 -15 -11 -17 2 -3 -3 -13 -12 -23 -15 -18 -17 -18 -58 20 -24 22 -55 42
-71 46 -15 4 -32 10 -38 14 -14 11 -175 10 -175 -1 0 -4 -6 -6 -13 -3 -8 3
-20 -2 -27 -11 -7 -8 -19 -15 -26 -15 -21 0 -85 -69 -102 -110 -19 -46 -23
-107 -11 -150 13 -44 41 -100 51 -100 3 0 10 -9 13 -21 5 -14 -1 -27 -18 -43
-25 -23 -57 -76 -65 -106 -21 -85 4 -223 51 -274 9 -11 17 -23 17 -27 0 -3 14
-12 30 -19 l31 -13 -31 -30 c-45 -44 -62 -82 -65 -146 -3 -58 15 -113 49 -146
39 -39 67 -42 496 -40 360 1 419 3 445 17 106 57 132 209 54 323 -15 22 -39
47 -53 54 -14 8 -26 19 -26 24 0 6 3 8 6 4 18 -17 88 81 102 142 21 97 -11
217 -69 257 l-30 22 48 38 c64 52 79 69 103 118 20 42 33 143 20 151 -4 3 -10
18 -13 33 -22 107 -225 181 -352 128 -39 -17 -68 -8 -60 17 9 26 12 75 6 84
-3 6 -15 7 -26 3z m259 -268 c14 -12 27 -26 27 -32 1 -5 2 -16 3 -22 4 -21
-23 -67 -45 -79 -31 -16 -89 -4 -108 23 -27 40 -25 75 6 107 35 35 80 36 117
3z m-624 -79 c0 -7 5 -13 10 -13 6 0 10 -18 10 -40 0 -82 -84 -119 -134 -59
-35 41 -32 84 9 125 27 27 105 17 105 -13z m526 -384 c42 -13 67 -71 49 -114
-14 -32 -32 -46 -69 -52 -41 -7 -71 9 -91 47 -19 37 -11 78 22 106 28 24 45
26 89 13z m-565 -26 c72 -43 48 -144 -38 -159 -27 -5 -96 24 -88 36 3 5 1 11
-5 15 -27 17 0 92 40 112 34 17 57 16 91 -4z m38 -408 c70 -36 59 -147 -17
-161 -41 -8 -78 10 -97 46 -11 21 -11 32 1 65 7 22 14 41 14 42 0 1 15 7 33
12 17 5 33 10 35 10 2 1 16 -6 31 -14z m577 -20 c29 -31 32 -38 23 -67 -5 -18
-9 -34 -9 -35 0 -7 -51 -34 -71 -38 -63 -13 -119 53 -98 114 13 36 50 60 93
61 20 0 38 -10 62 -35z"/>
</g>
</svg>
